<svg xmlns="http://www.w3.org/2000/svg" xmlns:xlink="http://www.w3.org/1999/xlink" width="384" zoomAndPan="magnify" viewBox="0 0 288 72" height="96" preserveAspectRatio="xMidYMid meet" version="1.2"><defs><clipPath id="2c3ded0bf6"><path d="M 245.3125 23.304688 L 270.8125 23.304688 L 270.8125 48.804688 L 245.3125 48.804688 Z M 245.3125 23.304688 "/></clipPath><clipPath id="5da3e7d765"><path d="M 235 11.109375 L 281 11.109375 L 281 36 L 235 36 Z M 235 11.109375 "/></clipPath><clipPath id="6c13ba007d"><path d="M 234.503906 11.109375 L 281 11.109375 L 281 25 L 234.503906 25 Z M 234.503906 11.109375 "/></clipPath><clipPath id="98e87a3c5c"><path d="M 234.503906 22 L 259 22 L 259 60.609375 L 234.503906 60.609375 Z M 234.503906 22 "/></clipPath><clipPath id="ead20d9a95"><path d="M 256 22 L 281 22 L 281 60.609375 L 256 60.609375 Z M 256 22 "/></clipPath><clipPath id="42618bb440"><path d="M 240.222656 18.367188 L 275.472656 18.367188 L 275.472656 53.617188 L 240.222656 53.617188 Z M 240.222656 18.367188 "/></clipPath><clipPath id="c091103b82"><path d="M 245.3125 23.769531 L 270 23.769531 L 270 48.519531 L 245.3125 48.519531 Z M 245.3125 23.769531 "/></clipPath><clipPath id="f98a512c7f"><path d="M 256 28.117188 L 267.691406 28.117188 L 267.691406 46.867188 L 256 46.867188 Z M 256 28.117188 "/></clipPath><clipPath id="8c85164363"><path d="M 248.191406 29 L 257 29 L 257 44 L 248.191406 44 Z M 248.191406 29 "/></clipPath><clipPath id="7acd636121"><path d="M 250.128906 29.257812 C 249.949219 30.160156 250.398438 31.089844 251.046875 31.738281 C 251.695312 32.386719 252.527344 32.820312 253.320312 33.285156 C 254.113281 33.746094 254.90625 34.273438 255.402344 35.046875 C 255.835938 35.71875 256.011719 36.523438 256.105469 37.316406 C 256.214844 38.28125 256.199219 39.292969 255.894531 40.199219 C 255.671875 39.652344 255.382812 39.128906 255.050781 38.640625 C 254.402344 37.679688 253.601562 36.828125 252.808594 35.988281 C 251.878906 35 250.949219 34.015625 250.019531 33.03125 C 250.984375 34.832031 252.472656 36.285156 253.734375 37.894531 C 254.996094 39.503906 256.066406 41.421875 255.949219 43.464844 C 255.855469 42.421875 255.007812 41.589844 254.089844 41.085938 C 253.171875 40.582031 252.140625 40.300781 251.234375 39.773438 C 249.523438 38.769531 248.371094 36.871094 248.28125 34.890625 C 248.191406 32.886719 249.105469 30.984375 250.128906 29.257812 Z M 250.128906 29.257812 "/></clipPath></defs><g id="ac0518a519"><g clip-rule="nonzero" clip-path="url(#2c3ded0bf6)"><path style=" stroke:none;fill-rule:nonzero;fill:#2e2c2c;fill-opacity:1;" d="M 258.003906 48.6875 C 250.992188 48.6875 245.3125 42.96875 245.3125 35.996094 C 245.3125 29.023438 250.992188 23.304688 258.003906 23.304688 C 265.015625 23.304688 270.695312 28.984375 270.695312 35.996094 C 270.695312 43.007812 264.976562 48.6875 258.003906 48.6875 Z M 258.003906 24.089844 C 251.421875 24.089844 246.09375 29.417969 246.09375 35.996094 C 246.09375 42.578125 251.421875 47.90625 258.003906 47.90625 C 264.585938 47.90625 269.910156 42.578125 269.910156 35.996094 C 269.910156 29.417969 264.546875 24.089844 258.003906 24.089844 Z M 258.003906 24.089844 "/></g><path style=" stroke:none;fill-rule:evenodd;fill:#ffffff;fill-opacity:1;" d="M 280.046875 23.625 L 280.046875 48.117188 L 257.730469 59.78125 L 257.730469 35.289062 Z M 280.046875 23.625 "/><path style=" stroke:none;fill-rule:evenodd;fill:#ffffff;fill-opacity:1;" d="M 257.730469 35.289062 L 257.730469 59.78125 L 235.414062 48.117188 L 235.414062 23.625 Z M 257.730469 35.289062 "/><g clip-rule="nonzero" clip-path="url(#5da3e7d765)"><path style=" stroke:none;fill-rule:evenodd;fill:#ffffff;fill-opacity:1;" d="M 280.046875 23.625 L 257.730469 35.289062 L 235.414062 23.625 L 257.730469 11.960938 Z M 280.046875 23.625 "/></g><g clip-rule="nonzero" clip-path="url(#6c13ba007d)"><path style=" stroke:none;fill-rule:evenodd;fill:#000000;fill-opacity:1;" d="M 280.046875 24.421875 C 279.921875 24.421875 279.792969 24.394531 279.675781 24.332031 L 257.730469 12.859375 L 235.785156 24.332031 C 235.394531 24.535156 234.910156 24.382812 234.707031 23.992188 C 234.503906 23.605469 234.65625 23.121094 235.046875 22.917969 L 257.359375 11.253906 C 257.59375 11.132812 257.867188 11.132812 258.097656 11.253906 L 280.414062 22.917969 C 280.804688 23.121094 280.957031 23.605469 280.753906 23.992188 C 280.609375 24.265625 280.332031 24.421875 280.046875 24.421875 Z M 280.046875 24.421875 "/></g><g clip-rule="nonzero" clip-path="url(#98e87a3c5c)"><path style=" stroke:none;fill-rule:evenodd;fill:#000000;fill-opacity:1;" d="M 257.730469 60.578125 C 257.605469 60.578125 257.480469 60.550781 257.359375 60.488281 L 235.046875 48.824219 C 234.78125 48.6875 234.617188 48.414062 234.617188 48.117188 L 234.617188 23.625 C 234.617188 23.347656 234.761719 23.085938 235 22.941406 C 235.238281 22.800781 235.535156 22.789062 235.78125 22.917969 L 258.097656 34.582031 C 258.488281 34.785156 258.640625 35.265625 258.4375 35.65625 C 258.230469 36.046875 257.75 36.199219 257.359375 35.996094 L 236.210938 24.941406 L 236.210938 47.636719 L 258.097656 59.074219 C 258.488281 59.277344 258.640625 59.761719 258.4375 60.152344 C 258.292969 60.421875 258.015625 60.578125 257.730469 60.578125 Z M 257.730469 60.578125 "/></g><g clip-rule="nonzero" clip-path="url(#ead20d9a95)"><path style=" stroke:none;fill-rule:evenodd;fill:#000000;fill-opacity:1;" d="M 257.730469 60.578125 C 257.585938 60.578125 257.445312 60.539062 257.316406 60.464844 C 257.078125 60.320312 256.933594 60.058594 256.933594 59.78125 L 256.933594 35.289062 C 256.933594 34.992188 257.097656 34.71875 257.359375 34.582031 L 279.675781 22.917969 C 279.921875 22.789062 280.21875 22.800781 280.457031 22.941406 C 280.695312 23.085938 280.84375 23.347656 280.84375 23.625 L 280.84375 48.117188 C 280.84375 48.414062 280.679688 48.6875 280.414062 48.824219 L 258.097656 60.488281 C 257.984375 60.546875 257.855469 60.578125 257.730469 60.578125 Z M 258.527344 35.769531 L 258.527344 58.464844 L 279.25 47.636719 L 279.25 24.941406 Z M 258.527344 35.769531 "/></g><g clip-rule="nonzero" clip-path="url(#42618bb440)"><path style=" stroke:none;fill-rule:nonzero;fill:#000000;fill-opacity:1;" d="M 269.035156 40.601562 C 269.449219 40.714844 269.871094 40.773438 270.296875 40.773438 C 270.640625 40.773438 270.980469 40.738281 271.3125 40.667969 C 271.648438 40.59375 271.96875 40.488281 272.28125 40.347656 C 272.59375 40.207031 272.886719 40.035156 273.160156 39.832031 C 273.4375 39.628906 273.6875 39.398438 273.914062 39.140625 C 274.136719 38.882812 274.332031 38.605469 274.5 38.308594 C 274.664062 38.007812 274.796875 37.695312 274.898438 37.367188 C 274.996094 37.039062 275.058594 36.707031 275.085938 36.367188 C 275.113281 36.023438 275.105469 35.683594 275.058594 35.34375 C 275.015625 35.007812 274.933594 34.675781 274.820312 34.355469 C 274.703125 34.03125 274.554688 33.726562 274.371094 33.4375 C 274.191406 33.148438 273.980469 32.878906 273.742188 32.636719 C 273.503906 32.390625 273.242188 32.171875 272.957031 31.984375 C 272.671875 31.796875 272.371094 31.640625 272.050781 31.515625 C 271.734375 31.390625 271.40625 31.300781 271.066406 31.246094 C 270.730469 31.191406 270.390625 31.175781 270.046875 31.195312 C 269.707031 31.210938 269.371094 31.265625 269.042969 31.359375 L 268.882812 31.402344 L 269.019531 31.324219 C 269.390625 31.113281 269.726562 30.855469 270.03125 30.554688 C 270.253906 30.332031 270.453125 30.089844 270.625 29.828125 C 270.800781 29.566406 270.949219 29.289062 271.070312 29 C 271.191406 28.710938 271.28125 28.410156 271.34375 28.101562 C 271.40625 27.792969 271.4375 27.480469 271.4375 27.164062 C 271.4375 26.851562 271.40625 26.539062 271.34375 26.230469 C 271.285156 25.921875 271.191406 25.621094 271.074219 25.332031 C 270.953125 25.039062 270.804688 24.765625 270.628906 24.503906 C 270.457031 24.242188 270.257812 23.996094 270.035156 23.773438 C 269.8125 23.550781 269.570312 23.355469 269.308594 23.179688 C 269.046875 23.003906 268.773438 22.855469 268.480469 22.734375 C 268.191406 22.613281 267.890625 22.523438 267.582031 22.460938 C 267.273438 22.398438 266.960938 22.367188 266.648438 22.367188 C 266.332031 22.367188 266.019531 22.398438 265.710938 22.460938 C 265.402344 22.519531 265.101562 22.613281 264.8125 22.730469 C 264.519531 22.851562 264.246094 23 263.984375 23.175781 C 263.722656 23.347656 263.480469 23.546875 263.257812 23.769531 C 262.953125 24.070312 262.695312 24.40625 262.484375 24.777344 L 262.402344 24.921875 L 262.445312 24.769531 C 262.535156 24.441406 262.589844 24.105469 262.605469 23.765625 C 262.625 23.425781 262.605469 23.085938 262.550781 22.75 C 262.496094 22.410156 262.40625 22.085938 262.28125 21.765625 C 262.15625 21.449219 262 21.148438 261.8125 20.863281 C 261.625 20.582031 261.40625 20.320312 261.164062 20.082031 C 260.917969 19.84375 260.652344 19.632812 260.363281 19.453125 C 260.074219 19.273438 259.769531 19.125 259.449219 19.007812 C 259.125 18.894531 258.796875 18.8125 258.460938 18.769531 C 258.121094 18.722656 257.78125 18.714844 257.441406 18.742188 C 257.101562 18.765625 256.769531 18.832031 256.441406 18.929688 C 256.117188 19.027344 255.804688 19.160156 255.503906 19.324219 C 255.207031 19.488281 254.929688 19.683594 254.671875 19.90625 C 254.414062 20.132812 254.183594 20.382812 253.980469 20.65625 C 253.777344 20.929688 253.605469 21.21875 253.464844 21.53125 C 253.320312 21.839844 253.214844 22.164062 253.144531 22.496094 C 253.070312 22.828125 253.035156 23.167969 253.035156 23.507812 C 253.03125 23.933594 253.089844 24.351562 253.199219 24.761719 L 253.246094 24.921875 L 253.167969 24.785156 C 252.996094 24.488281 252.800781 24.214844 252.570312 23.960938 C 252.34375 23.707031 252.089844 23.480469 251.8125 23.28125 C 251.535156 23.082031 251.242188 22.914062 250.929688 22.777344 C 250.617188 22.640625 250.292969 22.539062 249.957031 22.472656 C 249.625 22.40625 249.285156 22.375 248.945312 22.378906 C 248.605469 22.382812 248.269531 22.421875 247.9375 22.5 C 247.605469 22.574219 247.285156 22.6875 246.976562 22.832031 C 246.664062 22.976562 246.375 23.152344 246.105469 23.359375 C 245.832031 23.566406 245.585938 23.800781 245.367188 24.058594 C 245.144531 24.316406 244.953125 24.597656 244.792969 24.898438 C 244.628906 25.199219 244.5 25.511719 244.40625 25.839844 C 244.3125 26.167969 244.253906 26.5 244.230469 26.839844 C 244.207031 27.179688 244.21875 27.519531 244.265625 27.855469 C 244.316406 28.195312 244.398438 28.523438 244.519531 28.84375 C 244.636719 29.164062 244.789062 29.464844 244.972656 29.753906 C 245.15625 30.039062 245.367188 30.304688 245.609375 30.546875 C 245.910156 30.847656 246.246094 31.105469 246.617188 31.3125 L 246.761719 31.394531 L 246.609375 31.355469 C 246.277344 31.261719 245.941406 31.210938 245.601562 31.191406 C 245.261719 31.171875 244.921875 31.1875 244.582031 31.242188 C 244.246094 31.296875 243.917969 31.386719 243.597656 31.511719 C 243.28125 31.636719 242.980469 31.792969 242.695312 31.980469 C 242.410156 32.167969 242.148438 32.386719 241.90625 32.628906 C 241.667969 32.875 241.460938 33.144531 241.277344 33.433594 C 241.097656 33.722656 240.949219 34.027344 240.832031 34.347656 C 240.714844 34.671875 240.636719 35 240.589844 35.339844 C 240.542969 35.679688 240.535156 36.019531 240.5625 36.359375 C 240.589844 36.699219 240.652344 37.035156 240.75 37.363281 C 240.851562 37.6875 240.984375 38.003906 241.148438 38.300781 C 241.3125 38.601562 241.511719 38.878906 241.734375 39.136719 C 241.960938 39.394531 242.210938 39.625 242.484375 39.828125 C 242.761719 40.03125 243.054688 40.203125 243.363281 40.34375 C 243.675781 40.484375 244 40.589844 244.332031 40.664062 C 244.667969 40.734375 245.003906 40.769531 245.347656 40.769531 C 245.773438 40.769531 246.191406 40.714844 246.601562 40.601562 L 246.761719 40.558594 L 246.621094 40.640625 C 246.253906 40.851562 245.914062 41.109375 245.613281 41.414062 C 245.390625 41.636719 245.191406 41.878906 245.015625 42.140625 C 244.84375 42.398438 244.695312 42.675781 244.574219 42.96875 C 244.453125 43.257812 244.363281 43.558594 244.300781 43.867188 C 244.238281 44.175781 244.207031 44.484375 244.207031 44.800781 C 244.207031 45.113281 244.238281 45.425781 244.300781 45.734375 C 244.363281 46.042969 244.453125 46.34375 244.574219 46.632812 C 244.691406 46.925781 244.839844 47.199219 245.015625 47.460938 C 245.191406 47.722656 245.386719 47.964844 245.609375 48.1875 C 245.832031 48.410156 246.074219 48.609375 246.335938 48.785156 C 246.597656 48.960938 246.875 49.105469 247.164062 49.226562 C 247.457031 49.347656 247.753906 49.4375 248.0625 49.5 C 248.371094 49.5625 248.683594 49.59375 249 49.59375 C 249.3125 49.59375 249.625 49.5625 249.933594 49.5 C 250.242188 49.441406 250.542969 49.347656 250.832031 49.230469 C 251.121094 49.109375 251.398438 48.960938 251.660156 48.785156 C 251.921875 48.613281 252.164062 48.414062 252.386719 48.191406 C 252.6875 47.890625 252.941406 47.554688 253.152344 47.1875 L 253.234375 47.042969 L 253.191406 47.195312 C 253.082031 47.609375 253.027344 48.03125 253.027344 48.460938 C 253.027344 48.800781 253.0625 49.136719 253.136719 49.472656 C 253.207031 49.804688 253.3125 50.128906 253.453125 50.4375 C 253.597656 50.75 253.769531 51.042969 253.972656 51.316406 C 254.175781 51.589844 254.40625 51.839844 254.664062 52.0625 C 254.921875 52.289062 255.199219 52.484375 255.496094 52.648438 C 255.796875 52.816406 256.109375 52.945312 256.433594 53.046875 C 256.761719 53.144531 257.09375 53.207031 257.433594 53.234375 C 257.777344 53.261719 258.113281 53.253906 258.453125 53.207031 C 258.792969 53.164062 259.121094 53.082031 259.441406 52.964844 C 259.765625 52.851562 260.070312 52.703125 260.359375 52.523438 C 260.648438 52.339844 260.914062 52.132812 261.160156 51.894531 C 261.40625 51.65625 261.621094 51.394531 261.8125 51.109375 C 262 50.824219 262.15625 50.523438 262.28125 50.207031 C 262.40625 49.890625 262.496094 49.5625 262.550781 49.222656 C 262.605469 48.886719 262.625 48.546875 262.605469 48.207031 C 262.589844 47.867188 262.535156 47.53125 262.445312 47.203125 L 262.402344 47.054688 L 262.480469 47.195312 C 262.652344 47.488281 262.855469 47.757812 263.082031 48.011719 C 263.3125 48.261719 263.566406 48.484375 263.839844 48.679688 C 264.117188 48.878906 264.414062 49.042969 264.726562 49.175781 C 265.035156 49.3125 265.359375 49.410156 265.691406 49.476562 C 266.027344 49.542969 266.363281 49.570312 266.703125 49.566406 C 267.039062 49.558594 267.375 49.519531 267.707031 49.441406 C 268.035156 49.363281 268.355469 49.25 268.664062 49.105469 C 268.96875 48.960938 269.257812 48.785156 269.527344 48.578125 C 269.796875 48.375 270.042969 48.140625 270.261719 47.882812 C 270.480469 47.625 270.671875 47.34375 270.832031 47.046875 C 270.996094 46.746094 271.121094 46.433594 271.21875 46.109375 C 271.3125 45.78125 271.371094 45.449219 271.394531 45.113281 C 271.417969 44.773438 271.40625 44.433594 271.359375 44.097656 C 271.308594 43.761719 271.226562 43.4375 271.109375 43.117188 C 270.992188 42.796875 270.84375 42.496094 270.660156 42.210938 C 270.476562 41.921875 270.269531 41.660156 270.03125 41.417969 C 269.730469 41.113281 269.394531 40.859375 269.027344 40.644531 L 268.882812 40.5625 L 269.035156 40.605469 Z M 269.035156 40.601562 "/></g><g clip-rule="nonzero" clip-path="url(#c091103b82)"><path style=" stroke:none;fill-rule:nonzero;fill:#ffffff;fill-opacity:1;" d="M 269.769531 35.996094 C 269.769531 36.800781 269.691406 37.59375 269.535156 38.382812 C 269.378906 39.171875 269.144531 39.933594 268.839844 40.675781 C 268.53125 41.417969 268.15625 42.125 267.707031 42.792969 C 267.261719 43.457031 266.753906 44.078125 266.1875 44.644531 C 265.621094 45.210938 265.003906 45.71875 264.335938 46.164062 C 263.667969 46.609375 262.960938 46.988281 262.21875 47.292969 C 261.480469 47.601562 260.714844 47.835938 259.925781 47.992188 C 259.140625 48.148438 258.34375 48.226562 257.539062 48.226562 C 256.738281 48.226562 255.941406 48.148438 255.15625 47.992188 C 254.367188 47.835938 253.601562 47.601562 252.859375 47.292969 C 252.121094 46.988281 251.414062 46.609375 250.746094 46.164062 C 250.078125 45.71875 249.460938 45.210938 248.894531 44.644531 C 248.324219 44.078125 247.820312 43.457031 247.375 42.792969 C 246.925781 42.125 246.550781 41.417969 246.242188 40.675781 C 245.9375 39.933594 245.703125 39.171875 245.546875 38.382812 C 245.390625 37.59375 245.3125 36.800781 245.3125 35.996094 C 245.3125 35.195312 245.390625 34.398438 245.546875 33.613281 C 245.703125 32.824219 245.9375 32.058594 246.242188 31.316406 C 246.550781 30.574219 246.925781 29.871094 247.375 29.203125 C 247.820312 28.535156 248.324219 27.917969 248.894531 27.351562 C 249.460938 26.78125 250.078125 26.277344 250.746094 25.828125 C 251.414062 25.382812 252.121094 25.007812 252.859375 24.699219 C 253.601562 24.390625 254.367188 24.160156 255.15625 24.003906 C 255.941406 23.847656 256.738281 23.769531 257.539062 23.769531 C 258.34375 23.769531 259.140625 23.847656 259.925781 24.003906 C 260.714844 24.160156 261.480469 24.390625 262.21875 24.699219 C 262.960938 25.007812 263.667969 25.382812 264.335938 25.828125 C 265.003906 26.277344 265.621094 26.78125 266.1875 27.351562 C 266.753906 27.917969 267.261719 28.535156 267.707031 29.203125 C 268.15625 29.871094 268.53125 30.574219 268.839844 31.316406 C 269.144531 32.058594 269.378906 32.824219 269.535156 33.613281 C 269.691406 34.398438 269.769531 35.195312 269.769531 35.996094 Z M 269.769531 35.996094 "/></g><g clip-rule="nonzero" clip-path="url(#f98a512c7f)"><path style=" stroke:none;fill-rule:nonzero;fill:#508059;fill-opacity:1;" d="M 264.765625 28.117188 C 265.003906 29.308594 264.40625 30.535156 263.550781 31.390625 C 262.695312 32.25 261.597656 32.816406 260.550781 33.429688 C 259.503906 34.042969 258.460938 34.738281 257.804688 35.757812 C 257.230469 36.644531 256.996094 37.707031 256.878906 38.753906 C 256.726562 40.027344 256.75 41.359375 257.152344 42.558594 C 257.445312 41.835938 257.828125 41.144531 258.265625 40.5 C 259.121094 39.230469 260.175781 38.109375 261.226562 36.996094 C 262.453125 35.691406 263.679688 34.394531 264.90625 33.089844 C 263.636719 35.46875 261.667969 37.390625 260.003906 39.511719 C 258.34375 41.636719 256.925781 44.171875 257.078125 46.867188 C 257.203125 45.488281 258.320312 44.394531 259.535156 43.726562 C 260.75 43.0625 262.109375 42.691406 263.304688 41.992188 C 265.566406 40.675781 267.085938 38.167969 267.203125 35.550781 C 267.324219 32.90625 266.117188 30.390625 264.765625 28.117188 Z M 264.765625 28.117188 "/></g><g clip-rule="nonzero" clip-path="url(#8c85164363)"><g clip-rule="nonzero" clip-path="url(#7acd636121)"><path style=" stroke:none;fill-rule:nonzero;fill:#508059;fill-opacity:1;" d="M 256.214844 29.257812 L 256.214844 43.464844 L 248.191406 43.464844 L 248.191406 29.257812 Z M 256.214844 29.257812 "/></g></g><g style="fill:#000000;fill-opacity:1;"><g transform="translate(6.801928, 48.635896)"><path style="stroke:none" d="M 2.265625 0 L 2.265625 -26.09375 L 12.5625 -26.09375 C 14.539062 -26.09375 16.222656 -25.710938 17.609375 -24.953125 C 19.003906 -24.203125 20.066406 -23.160156 20.796875 -21.828125 C 21.535156 -20.503906 21.90625 -18.976562 21.90625 -17.25 C 21.90625 -15.519531 21.53125 -13.992188 20.78125 -12.671875 C 20.039062 -11.347656 18.960938 -10.3125 17.546875 -9.5625 C 16.128906 -8.820312 14.421875 -8.453125 12.421875 -8.453125 L 7.78125 -8.453125 L 7.78125 0 Z M 7.78125 -12.875 L 11.53125 -12.875 C 13.113281 -12.875 14.289062 -13.28125 15.0625 -14.09375 C 15.84375 -14.90625 16.234375 -15.957031 16.234375 -17.25 C 16.234375 -18.550781 15.84375 -19.597656 15.0625 -20.390625 C 14.289062 -21.179688 13.101562 -21.578125 11.5 -21.578125 L 7.78125 -21.578125 Z M 7.78125 -12.875 "/></g></g><g style="fill:#000000;fill-opacity:1;"><g transform="translate(30.033083, 48.635896)"><path style="stroke:none" d="M 2.265625 0 L 2.265625 -26.09375 L 7.78125 -26.09375 L 7.78125 -15.328125 L 18.984375 -15.328125 L 18.984375 -26.09375 L 24.484375 -26.09375 L 24.484375 0 L 18.984375 0 L 18.984375 -10.78125 L 7.78125 -10.78125 L 7.78125 0 Z M 2.265625 0 "/></g></g><g style="fill:#000000;fill-opacity:1;"><g transform="translate(56.792215, 48.635896)"><path style="stroke:none" d="M 2.265625 0 L 2.265625 -26.09375 L 19.84375 -26.09375 L 19.84375 -21.546875 L 7.78125 -21.546875 L 7.78125 -15.328125 L 18.9375 -15.328125 L 18.9375 -10.78125 L 7.78125 -10.78125 L 7.78125 -4.546875 L 19.90625 -4.546875 L 19.90625 0 Z M 2.265625 0 "/></g></g><g style="fill:#000000;fill-opacity:1;"><g transform="translate(78.762469, 48.635896)"><path style="stroke:none" d="M 24.09375 -26.09375 L 24.09375 0 L 19.328125 0 L 7.96875 -16.421875 L 7.78125 -16.421875 L 7.78125 0 L 2.265625 0 L 2.265625 -26.09375 L 7.109375 -26.09375 L 18.375 -9.6875 L 18.59375 -9.6875 L 18.59375 -26.09375 Z M 24.09375 -26.09375 "/></g></g><g style="fill:#000000;fill-opacity:1;"><g transform="translate(105.126773, 48.635896)"><path style="stroke:none" d="M 26.25 -13.046875 C 26.25 -10.203125 25.707031 -7.78125 24.625 -5.78125 C 23.550781 -3.789062 22.09375 -2.269531 20.25 -1.21875 C 18.40625 -0.164062 16.332031 0.359375 14.03125 0.359375 C 11.707031 0.359375 9.625 -0.164062 7.78125 -1.21875 C 5.9375 -2.269531 4.476562 -3.796875 3.40625 -5.796875 C 2.34375 -7.796875 1.8125 -10.210938 1.8125 -13.046875 C 1.8125 -15.890625 2.34375 -18.304688 3.40625 -20.296875 C 4.476562 -22.296875 5.9375 -23.820312 7.78125 -24.875 C 9.625 -25.925781 11.707031 -26.453125 14.03125 -26.453125 C 16.332031 -26.453125 18.40625 -25.925781 20.25 -24.875 C 22.09375 -23.820312 23.550781 -22.296875 24.625 -20.296875 C 25.707031 -18.304688 26.25 -15.890625 26.25 -13.046875 Z M 20.65625 -13.046875 C 20.65625 -15.816406 20.050781 -17.925781 18.84375 -19.375 C 17.632812 -20.832031 16.03125 -21.5625 14.03125 -21.5625 C 12.019531 -21.5625 10.410156 -20.832031 9.203125 -19.375 C 8.003906 -17.925781 7.40625 -15.816406 7.40625 -13.046875 C 7.40625 -10.285156 8.003906 -8.171875 9.203125 -6.703125 C 10.410156 -5.242188 12.019531 -4.515625 14.03125 -4.515625 C 16.03125 -4.515625 17.632812 -5.242188 18.84375 -6.703125 C 20.050781 -8.171875 20.65625 -10.285156 20.65625 -13.046875 Z M 20.65625 -13.046875 "/></g></g><g style="fill:#000000;fill-opacity:1;"><g transform="translate(133.183477, 48.635896)"><path style="stroke:none" d="M 3.15625 0 L 3.15625 -26.09375 L 12.28125 -26.09375 C 14.09375 -26.09375 15.585938 -25.78125 16.765625 -25.15625 C 17.953125 -24.53125 18.832031 -23.691406 19.40625 -22.640625 C 19.988281 -21.597656 20.28125 -20.4375 20.28125 -19.15625 C 20.28125 -18.039062 20.082031 -17.113281 19.6875 -16.375 C 19.289062 -15.644531 18.769531 -15.066406 18.125 -14.640625 C 17.488281 -14.222656 16.796875 -13.910156 16.046875 -13.703125 L 16.046875 -13.453125 C 16.847656 -13.398438 17.648438 -13.117188 18.453125 -12.609375 C 19.265625 -12.097656 19.941406 -11.367188 20.484375 -10.421875 C 21.023438 -9.472656 21.296875 -8.3125 21.296875 -6.9375 C 21.296875 -5.625 21 -4.441406 20.40625 -3.390625 C 19.8125 -2.347656 18.875 -1.519531 17.59375 -0.90625 C 16.3125 -0.300781 14.644531 0 12.59375 0 Z M 6.3125 -2.796875 L 12.59375 -2.796875 C 14.65625 -2.796875 16.117188 -3.195312 16.984375 -4 C 17.859375 -4.800781 18.296875 -5.78125 18.296875 -6.9375 C 18.296875 -7.8125 18.066406 -8.625 17.609375 -9.375 C 17.160156 -10.132812 16.519531 -10.738281 15.6875 -11.1875 C 14.863281 -11.644531 13.878906 -11.875 12.734375 -11.875 L 6.3125 -11.875 Z M 6.3125 -14.625 L 12.171875 -14.625 C 13.597656 -14.625 14.804688 -15.035156 15.796875 -15.859375 C 16.785156 -16.679688 17.28125 -17.78125 17.28125 -19.15625 C 17.28125 -20.300781 16.878906 -21.273438 16.078125 -22.078125 C 15.273438 -22.878906 14.007812 -23.28125 12.28125 -23.28125 L 6.3125 -23.28125 Z M 6.3125 -14.625 "/></g></g><g style="fill:#000000;fill-opacity:1;"><g transform="translate(156.516523, 48.635896)"><path style="stroke:none" d="M 4.234375 0 L 0.921875 0 L 10.5 -26.09375 L 13.765625 -26.09375 L 23.34375 0 L 20.03125 0 L 17.40625 -7.390625 L 6.859375 -7.390625 Z M 7.84375 -10.1875 L 16.40625 -10.1875 L 12.234375 -21.96875 L 12.03125 -21.96875 Z M 7.84375 -10.1875 "/></g></g><g style="fill:#000000;fill-opacity:1;"><g transform="translate(180.766589, 48.635896)"><path style="stroke:none" d="M 17.421875 -19.5625 C 17.273438 -20.851562 16.65625 -21.851562 15.5625 -22.5625 C 14.476562 -23.28125 13.144531 -23.640625 11.5625 -23.640625 C 9.832031 -23.640625 8.441406 -23.226562 7.390625 -22.40625 C 6.335938 -21.59375 5.8125 -20.5625 5.8125 -19.3125 C 5.8125 -18.375 6.097656 -17.617188 6.671875 -17.046875 C 7.242188 -16.472656 7.921875 -16.023438 8.703125 -15.703125 C 9.492188 -15.390625 10.210938 -15.148438 10.859375 -14.984375 L 13.5 -14.265625 C 14.175781 -14.085938 14.929688 -13.84375 15.765625 -13.53125 C 16.609375 -13.21875 17.414062 -12.789062 18.1875 -12.25 C 18.957031 -11.707031 19.59375 -11.015625 20.09375 -10.171875 C 20.59375 -9.335938 20.84375 -8.304688 20.84375 -7.078125 C 20.84375 -5.671875 20.472656 -4.394531 19.734375 -3.25 C 19.003906 -2.113281 17.9375 -1.210938 16.53125 -0.546875 C 15.125 0.117188 13.421875 0.453125 11.421875 0.453125 C 8.609375 0.453125 6.378906 -0.207031 4.734375 -1.53125 C 3.085938 -2.851562 2.1875 -4.582031 2.03125 -6.71875 L 5.296875 -6.71875 C 5.378906 -5.738281 5.710938 -4.925781 6.296875 -4.28125 C 6.878906 -3.644531 7.617188 -3.171875 8.515625 -2.859375 C 9.410156 -2.546875 10.378906 -2.390625 11.421875 -2.390625 C 12.617188 -2.390625 13.695312 -2.585938 14.65625 -2.984375 C 15.625 -3.378906 16.382812 -3.929688 16.9375 -4.640625 C 17.5 -5.347656 17.78125 -6.179688 17.78125 -7.140625 C 17.78125 -8.003906 17.535156 -8.707031 17.046875 -9.25 C 16.566406 -9.789062 15.929688 -10.226562 15.140625 -10.5625 C 14.359375 -10.90625 13.507812 -11.207031 12.59375 -11.46875 L 9.375 -12.390625 C 7.332031 -12.972656 5.71875 -13.804688 4.53125 -14.890625 C 3.34375 -15.972656 2.75 -17.394531 2.75 -19.15625 C 2.75 -20.625 3.144531 -21.898438 3.9375 -22.984375 C 4.738281 -24.078125 5.8125 -24.925781 7.15625 -25.53125 C 8.5 -26.144531 10.003906 -26.453125 11.671875 -26.453125 C 13.347656 -26.453125 14.835938 -26.148438 16.140625 -25.546875 C 17.453125 -24.953125 18.492188 -24.132812 19.265625 -23.09375 C 20.035156 -22.0625 20.441406 -20.882812 20.484375 -19.5625 Z M 17.421875 -19.5625 "/></g></g><g style="fill:#000000;fill-opacity:1;"><g transform="translate(203.641126, 48.635896)"><path style="stroke:none" d="M 3.15625 0 L 3.15625 -26.09375 L 18.90625 -26.09375 L 18.90625 -23.28125 L 6.3125 -23.28125 L 6.3125 -14.46875 L 18.09375 -14.46875 L 18.09375 -11.671875 L 6.3125 -11.671875 L 6.3125 -2.796875 L 19.109375 -2.796875 L 19.109375 0 Z M 3.15625 0 "/></g></g></g></svg>